<svg width="101" height="99" viewBox="0 0 101 99" fill="none" xmlns="http://www.w3.org/2000/svg">
<path d="M53.4337 74.6433L50.9182 74.4453C50.9182 74.3463 50.9182 74.1484 50.9182 73.8514C51.8238 61.3787 37.3348 54.2515 36.7311 53.8555L37.8379 51.6777C38.4416 51.9747 49.912 57.7161 52.83 68.011C54.7417 64.3484 58.4646 59.9929 65.7091 56.7262L66.7153 59.003C55.3454 64.0514 53.7355 72.2676 53.4337 74.1484C53.4337 74.3463 53.4337 74.4453 53.4337 74.6433Z" fill="#272727"/>
<path d="M65.8097 69.6938C65.6085 69.6938 65.4072 69.6938 65.206 69.6938C60.3763 69.3969 57.8608 67.0211 56.5528 64.9424C54.3392 61.4777 54.138 57.0232 55.1442 54.4495C57.559 48.4112 67.5202 42.0759 82.2105 47.0254L83.2166 47.3223L83.116 48.3122C81.7074 60.2899 74.0604 69.6938 65.8097 69.6938ZM72.1486 47.8173C64.1998 47.8173 58.867 51.6778 57.4584 55.4394C56.754 57.1222 56.754 60.7848 58.6658 63.6555C60.1751 65.9323 62.3887 67.1201 65.4072 67.2191C72.3499 67.6151 78.9907 59.498 80.5 49.1041C77.4814 48.1142 74.6641 47.8173 72.1486 47.8173Z" fill="#272727"/>
<path d="M38.2403 68.803C37.0329 68.803 35.7248 68.704 34.3162 68.308C22.8457 65.7343 16.0037 49.797 18.9216 32.7708L19.1228 31.7809H20.129C32.002 31.2859 39.7496 34.8496 44.1768 37.9182C49.6102 41.6798 53.1318 47.0253 53.5343 52.0737C53.8361 55.7364 51.9244 61.6757 47.5978 65.3383C45.5854 67.1202 42.5669 68.803 38.2403 68.803ZM21.2358 34.2556C18.9216 49.599 24.8581 63.6555 34.8193 65.9323C39.1459 66.9222 42.8687 66.1303 45.8873 63.5565C49.8114 60.1909 51.22 54.9444 51.0188 52.3707C50.4151 44.6495 40.4539 33.8597 21.2358 34.2556Z" fill="#272727"/>
<path d="M49.6101 0.00526801C21.9401 0.401226 -0.397118 22.8718 0.00535469 50.1929C0.407828 77.514 23.2482 99.3907 51.0188 98.9947C78.7894 98.5988 101.026 76.1281 100.624 48.8071C100.221 21.585 77.3808 -0.39069 49.6101 0.00526801ZM50.9182 96.619C24.5562 97.0149 2.82266 76.1281 2.42019 50.0939C2.01772 24.1587 23.2482 2.77697 49.7108 2.38101C76.0727 1.98506 97.9069 22.8718 98.2087 48.9061C98.6112 74.8413 77.3808 96.223 50.9182 96.619Z" fill="#272727"/>
</svg>
