<svg width="101" height="99" viewBox="0 0 101 99" fill="none" xmlns="http://www.w3.org/2000/svg">
<path d="M49.6101 0.00526801C21.9401 0.401226 -0.397118 22.8718 0.00535469 50.1929C0.407828 77.514 23.2482 99.3907 51.0188 98.9947C78.7894 98.5988 101.026 76.1281 100.624 48.8071C100.221 21.585 77.3808 -0.39069 49.6101 0.00526801ZM50.9182 96.619C24.5562 97.0149 2.82266 76.1281 2.42019 50.0939C2.01772 24.1587 23.2482 2.77697 49.7108 2.38101C76.0727 1.98506 97.9069 22.8718 98.2087 48.9061C98.6112 74.8413 77.3808 96.223 50.9182 96.619Z" fill="#272727"/>
<path d="M48.4795 62.3833H31.6063V60.0309L40.5204 50.1263C41.8411 48.6289 42.749 47.4144 43.2442 46.4829C43.7512 45.5396 44.0047 44.5668 44.0047 43.5645C44.0047 42.2203 43.5979 41.1179 42.7844 40.2571C41.9708 39.3964 40.886 38.966 39.53 38.966C37.9028 38.966 36.6352 39.4317 35.7273 40.3632C34.8312 41.2829 34.3831 42.5682 34.3831 44.219H31.1111C31.1111 41.8489 31.8716 39.9329 33.3927 38.4707C34.9255 37.0086 36.9713 36.2776 39.53 36.2776C41.9236 36.2776 43.8161 36.9084 45.2074 38.1701C46.5988 39.4199 47.2945 41.0884 47.2945 43.1754C47.2945 45.7105 45.6791 48.7291 42.4483 52.2311L35.5505 59.7126H48.4795V62.3833ZM66.7657 53.7344H70.3384V56.4052H66.7657V62.3833H63.4759V56.4052H51.7496V54.4773L63.2814 36.6313H66.7657V53.7344ZM55.4638 53.7344H63.4759V41.1061L63.0868 41.8135L55.4638 53.7344Z" fill="#272727"/>
</svg>
