<svg width="101" height="99" viewBox="0 0 101 99" fill="none" xmlns="http://www.w3.org/2000/svg">
<path d="M49.6101 0.00526801C21.9401 0.401226 -0.397118 22.8718 0.00535468 50.1929C0.407827 77.514 23.2482 99.3907 51.0188 98.9947C78.7894 98.5988 101.026 76.1281 100.624 48.8071C100.221 21.585 77.3807 -0.39069 49.6101 0.00526801ZM50.9181 96.619C24.5562 97.0149 2.82266 76.1281 2.42019 50.0939C2.01772 24.1587 23.2482 2.77697 49.7107 2.38101C76.0727 1.98506 97.9068 22.8718 98.2087 48.9061C98.6112 74.8413 77.3807 96.223 50.9181 96.619Z" fill="#272727"/>
<path d="M58.356 36.8048C56.5536 36.8048 54.8638 37.242 53.174 38.0071C52.9487 38.1164 52.6108 38.2257 52.3855 38.2257V38.1164C52.3855 36.6955 52.9487 33.4165 56.6662 29.7003C57.1168 29.2631 57.1168 28.6072 56.6662 28.17C56.2156 27.7328 55.5397 27.7328 55.0891 28.17C53.2867 30.0282 52.1602 31.777 51.3716 33.4165C49.0059 27.4049 43.0354 23.1422 36.051 23.1422C35.3751 23.1422 34.9245 23.5794 34.9245 24.2352C34.9245 29.4817 37.6281 34.1816 41.6836 37.1327C34.6992 38.663 29.1793 46.6419 29.1793 56.1511C29.1793 66.8627 35.9384 75.6067 44.2746 75.6067C45.6264 75.6067 46.9782 75.3881 48.33 74.9509C50.2451 74.2951 52.3855 74.2951 54.3006 74.9509C55.6524 75.3881 57.0042 75.6067 58.356 75.6067C66.6922 75.6067 73.4513 66.8627 73.4513 56.1511C73.4513 45.4396 66.6922 36.8048 58.356 36.8048ZM37.2902 25.3282C44.1619 25.8747 49.6818 31.2305 50.2451 37.8978C49.9071 37.8978 47.0909 37.0234 45.9643 36.9141C41.1203 34.9467 37.7408 30.5747 37.2902 25.3282ZM58.356 73.4207C57.2295 73.4207 56.103 73.2021 55.0891 72.8742C53.8499 72.437 52.6108 72.2184 51.3716 72.2184C50.1324 72.2184 48.7806 72.437 47.6541 72.8742C46.6403 73.2021 45.5137 73.4207 44.3872 73.4207C37.2902 73.4207 31.545 65.6603 31.545 56.1511C31.545 46.6419 37.2902 38.8816 44.3872 38.8816C44.7252 38.8816 45.0631 38.8816 45.4011 38.8816C46.415 39.3188 47.4288 39.5374 48.5553 39.756C50.3578 40.6304 52.3855 40.6304 54.1879 39.756C55.5397 39.1002 56.8915 38.7723 58.356 38.7723C65.453 38.7723 71.1983 46.5326 71.1983 56.0418C71.1983 65.551 65.453 73.4207 58.356 73.4207Z" fill="#272727"/>
</svg>
