<svg width="101" height="99" viewBox="0 0 101 99" fill="none" xmlns="http://www.w3.org/2000/svg">
<path d="M76.6711 36.4776C76.6711 36.2796 76.5705 36.1807 76.5705 36.0817C76.4698 35.9827 76.4698 35.8837 76.3692 35.7847C76.3692 35.7847 76.3692 35.7847 76.2686 35.6857C76.2686 35.6857 76.2686 35.6857 76.168 35.6857L62.4839 27.8655C62.1821 27.6676 61.7796 27.6676 61.4777 27.8655L47.7937 35.6857C47.7937 35.6857 47.7937 35.6857 47.693 35.6857C47.693 35.6857 47.693 35.6857 47.5924 35.7847C47.4918 35.8837 47.3912 35.9827 47.3912 36.0817C47.2906 36.1807 47.2906 36.2796 47.2906 36.3786V36.4776V36.5766V41.6251L40.3479 37.6655C40.0461 37.4675 39.6436 37.4675 39.3417 37.6655L25.6576 45.4857C25.6576 45.4857 25.6576 45.4857 25.557 45.4857C25.557 45.4857 25.557 45.4857 25.4564 45.5847C25.3558 45.6837 25.2552 45.7826 25.2552 45.8816C25.1546 45.9806 25.1546 46.0796 25.1546 46.1786V46.2776V46.3766V61.9179C25.1546 62.3139 25.3558 62.6109 25.6576 62.8089L39.3417 70.629H39.4423H39.543C39.6436 70.629 39.7442 70.728 39.8448 70.728C39.9454 70.728 40.046 70.728 40.1467 70.629H40.2473H40.3479L54.032 62.8089C54.3338 62.6109 54.5351 62.3139 54.5351 61.9179V56.8695L61.4777 60.8291H61.5783H61.679C61.7796 60.8291 61.8802 60.9281 61.9808 60.9281C62.0814 60.9281 62.1821 60.9281 62.2827 60.8291H62.3833H62.4839L76.168 53.0089C76.4698 52.8109 76.6711 52.5139 76.6711 52.118V36.4776ZM61.9808 29.9443L73.6525 36.5766L61.9808 43.2089L50.3091 36.5766L61.9808 29.9443ZM39.8448 39.7443L51.5165 46.3766L39.8448 53.0089L28.1731 46.3766L39.8448 39.7443ZM27.0663 48.0594L38.8386 54.6917V68.0553L27.1669 61.423V48.0594H27.0663ZM40.851 68.0553V54.6917L52.5227 48.0594V61.324L40.851 68.0553ZM54.5351 46.2776C54.5351 46.0796 54.4345 45.9806 54.4345 45.8816C54.3338 45.7826 54.3338 45.6837 54.2332 45.5847C54.2332 45.5847 54.2332 45.5847 54.1326 45.4857C54.1326 45.4857 54.1326 45.4857 54.032 45.4857L49.3029 42.813V38.2594L60.9746 44.8917V58.1563L54.5351 54.4937V46.2776ZM62.987 58.2553V44.8917L74.6587 38.2594V51.524L62.987 58.2553Z" fill="#272727"/>
<path d="M49.6101 0.00526801C21.9401 0.401226 -0.397118 22.8718 0.00535469 50.1929C0.407828 77.514 23.2482 99.3907 51.0188 98.9947C78.7894 98.5988 101.026 76.1281 100.624 48.8071C100.221 21.585 77.3808 -0.39069 49.6101 0.00526801ZM50.9182 96.619C24.5562 97.0149 2.82266 76.1281 2.42019 50.0939C2.01772 24.1587 23.2482 2.77697 49.7108 2.38101C76.0727 1.98506 97.9069 22.8718 98.2087 48.9061C98.6112 74.8413 77.3808 96.223 50.9182 96.619Z" fill="#272727"/>
</svg>
